<svg class="rich-terminal" viewBox="0 0 994 635.5999999999999" xmlns="http://www.w3.org/2000/svg">
    <!-- Generated with Rich https://www.textualize.io -->
    <style>




    .terminal-910200675-matrix {
        font-family: Menlo;
        font-size: 20px;
        line-height: 24.4px;
        font-variant-east-asian: full-width;
    }

    .terminal-910200675-title {
        font-size: 18px;
        font-weight: bold;
        font-family: arial;
    }

    .terminal-910200675-r1 { fill: #c5c8c6 }
.terminal-910200675-r2 { fill: #bdbdbd;font-weight: bold }
.terminal-910200675-r3 { fill: #4b4b4b }
.terminal-910200675-r4 { fill: #fcfcfc;font-weight: bold }
.terminal-910200675-r5 { fill: #adadad }
.terminal-910200675-r6 { fill: #1e1e1e }
.terminal-910200675-r7 { fill: #bdbdbd }
.terminal-910200675-r8 { fill: #fcfcfc }
.terminal-910200675-r9 { fill: #282828 }
.terminal-910200675-r10 { fill: #818181 }
.terminal-910200675-r11 { fill: #e0e0e0 }
    </style>

    <defs>
    <clipPath id="terminal-910200675-clip-terminal">
      <rect x="0" y="0" width="975.0" height="584.5999999999999" />
    </clipPath>
    <clipPath id="terminal-910200675-line-0">
    <rect x="0" y="1.5" width="976" height="24.65"/>
            </clipPath>
<clipPath id="terminal-910200675-line-1">
    <rect x="0" y="25.9" width="976" height="24.65"/>
            </clipPath>
<clipPath id="terminal-910200675-line-2">
    <rect x="0" y="50.3" width="976" height="24.65"/>
            </clipPath>
<clipPath id="terminal-910200675-line-3">
    <rect x="0" y="74.7" width="976" height="24.65"/>
            </clipPath>
<clipPath id="terminal-910200675-line-4">
    <rect x="0" y="99.1" width="976" height="24.65"/>
            </clipPath>
<clipPath id="terminal-910200675-line-5">
    <rect x="0" y="123.5" width="976" height="24.65"/>
            </clipPath>
<clipPath id="terminal-910200675-line-6">
    <rect x="0" y="147.9" width="976" height="24.65"/>
            </clipPath>
<clipPath id="terminal-910200675-line-7">
    <rect x="0" y="172.3" width="976" height="24.65"/>
            </clipPath>
<clipPath id="terminal-910200675-line-8">
    <rect x="0" y="196.7" width="976" height="24.65"/>
            </clipPath>
<clipPath id="terminal-910200675-line-9">
    <rect x="0" y="221.1" width="976" height="24.65"/>
            </clipPath>
<clipPath id="terminal-910200675-line-10">
    <rect x="0" y="245.5" width="976" height="24.65"/>
            </clipPath>
<clipPath id="terminal-910200675-line-11">
    <rect x="0" y="269.9" width="976" height="24.65"/>
            </clipPath>
<clipPath id="terminal-910200675-line-12">
    <rect x="0" y="294.3" width="976" height="24.65"/>
            </clipPath>
<clipPath id="terminal-910200675-line-13">
    <rect x="0" y="318.7" width="976" height="24.65"/>
            </clipPath>
<clipPath id="terminal-910200675-line-14">
    <rect x="0" y="343.1" width="976" height="24.65"/>
            </clipPath>
<clipPath id="terminal-910200675-line-15">
    <rect x="0" y="367.5" width="976" height="24.65"/>
            </clipPath>
<clipPath id="terminal-910200675-line-16">
    <rect x="0" y="391.9" width="976" height="24.65"/>
            </clipPath>
<clipPath id="terminal-910200675-line-17">
    <rect x="0" y="416.3" width="976" height="24.65"/>
            </clipPath>
<clipPath id="terminal-910200675-line-18">
    <rect x="0" y="440.7" width="976" height="24.65"/>
            </clipPath>
<clipPath id="terminal-910200675-line-19">
    <rect x="0" y="465.1" width="976" height="24.65"/>
            </clipPath>
<clipPath id="terminal-910200675-line-20">
    <rect x="0" y="489.5" width="976" height="24.65"/>
            </clipPath>
<clipPath id="terminal-910200675-line-21">
    <rect x="0" y="513.9" width="976" height="24.65"/>
            </clipPath>
<clipPath id="terminal-910200675-line-22">
    <rect x="0" y="538.3" width="976" height="24.65"/>
            </clipPath>
    </defs>

    <rect fill="#292929" stroke="rgba(255,255,255,0.35)" stroke-width="1" x="1" y="1" width="992" height="633.6" rx="8"/><text class="terminal-910200675-title" fill="#c5c8c6" text-anchor="middle" x="496" y="27">Argo&#160;·&#160;Security&#160;console</text>
            <g transform="translate(26,22)">
            <circle cx="0" cy="0" r="7" fill="#ff5f57"/>
            <circle cx="22" cy="0" r="7" fill="#febc2e"/>
            <circle cx="44" cy="0" r="7" fill="#28c840"/>
            </g>

    <g transform="translate(9, 41)" clip-path="url(#terminal-910200675-clip-terminal)">
    <rect fill="#1e1e1e" x="0" y="1.5" width="976" height="24.65" shape-rendering="crispEdges"/><rect fill="#1e1e1e" x="0" y="25.9" width="976" height="24.65" shape-rendering="crispEdges"/><rect fill="#1e1e1e" x="0" y="50.3" width="976" height="24.65" shape-rendering="crispEdges"/><rect fill="#1e1e1e" x="0" y="74.7" width="12.2" height="24.65" shape-rendering="crispEdges"/><rect fill="#1e1e1e" x="12.2" y="74.7" width="146.4" height="24.65" shape-rendering="crispEdges"/><rect fill="#1e1e1e" x="158.6" y="74.7" width="12.2" height="24.65" shape-rendering="crispEdges"/><rect fill="#1e1e1e" x="170.8" y="74.7" width="12.2" height="24.65" shape-rendering="crispEdges"/><rect fill="#1e1e1e" x="183" y="74.7" width="97.6" height="24.65" shape-rendering="crispEdges"/><rect fill="#1e1e1e" x="280.6" y="74.7" width="12.2" height="24.65" shape-rendering="crispEdges"/><rect fill="#1e1e1e" x="292.8" y="74.7" width="12.2" height="24.65" shape-rendering="crispEdges"/><rect fill="#1e1e1e" x="305" y="74.7" width="48.8" height="24.65" shape-rendering="crispEdges"/><rect fill="#1e1e1e" x="353.8" y="74.7" width="12.2" height="24.65" shape-rendering="crispEdges"/><rect fill="#1e1e1e" x="366" y="74.7" width="585.6" height="24.65" shape-rendering="crispEdges"/><rect fill="#1e1e1e" x="951.6" y="74.7" width="24.4" height="24.65" shape-rendering="crispEdges"/><rect fill="#1e1e1e" x="0" y="99.1" width="12.2" height="24.65" shape-rendering="crispEdges"/><rect fill="#1e1e1e" x="12.2" y="99.1" width="146.4" height="24.65" shape-rendering="crispEdges"/><rect fill="#1e1e1e" x="158.6" y="99.1" width="12.2" height="24.65" shape-rendering="crispEdges"/><rect fill="#1e1e1e" x="170.8" y="99.1" width="780.8" height="24.65" shape-rendering="crispEdges"/><rect fill="#1e1e1e" x="951.6" y="99.1" width="24.4" height="24.65" shape-rendering="crispEdges"/><rect fill="#1e1e1e" x="0" y="123.5" width="12.2" height="24.65" shape-rendering="crispEdges"/><rect fill="#1e1e1e" x="12.2" y="123.5" width="927.2" height="24.65" shape-rendering="crispEdges"/><rect fill="#1e1e1e" x="939.4" y="123.5" width="12.2" height="24.65" shape-rendering="crispEdges"/><rect fill="#1e1e1e" x="951.6" y="123.5" width="24.4" height="24.65" shape-rendering="crispEdges"/><rect fill="#1e1e1e" x="0" y="147.9" width="12.2" height="24.65" shape-rendering="crispEdges"/><rect fill="#1e1e1e" x="12.2" y="147.9" width="24.4" height="24.65" shape-rendering="crispEdges"/><rect fill="#1e1e1e" x="36.6" y="147.9" width="854" height="24.65" shape-rendering="crispEdges"/><rect fill="#000000" x="890.6" y="147.9" width="24.4" height="24.65" shape-rendering="crispEdges"/><rect fill="#1e1e1e" x="915" y="147.9" width="24.4" height="24.65" shape-rendering="crispEdges"/><rect fill="#1e1e1e" x="939.4" y="147.9" width="12.2" height="24.65" shape-rendering="crispEdges"/><rect fill="#1e1e1e" x="951.6" y="147.9" width="24.4" height="24.65" shape-rendering="crispEdges"/><rect fill="#1e1e1e" x="0" y="172.3" width="12.2" height="24.65" shape-rendering="crispEdges"/><rect fill="#1e1e1e" x="12.2" y="172.3" width="24.4" height="24.65" shape-rendering="crispEdges"/><rect fill="#1e1e1e" x="36.6" y="172.3" width="292.8" height="24.65" shape-rendering="crispEdges"/><rect fill="#1e1e1e" x="329.4" y="172.3" width="561.2" height="24.65" shape-rendering="crispEdges"/><rect fill="#000000" x="890.6" y="172.3" width="24.4" height="24.65" shape-rendering="crispEdges"/><rect fill="#1e1e1e" x="915" y="172.3" width="24.4" height="24.65" shape-rendering="crispEdges"/><rect fill="#1e1e1e" x="939.4" y="172.3" width="12.2" height="24.65" shape-rendering="crispEdges"/><rect fill="#1e1e1e" x="951.6" y="172.3" width="24.4" height="24.65" shape-rendering="crispEdges"/><rect fill="#1e1e1e" x="0" y="196.7" width="12.2" height="24.65" shape-rendering="crispEdges"/><rect fill="#1e1e1e" x="12.2" y="196.7" width="24.4" height="24.65" shape-rendering="crispEdges"/><rect fill="#1e1e1e" x="36.6" y="196.7" width="0" height="24.65" shape-rendering="crispEdges"/><rect fill="#1e1e1e" x="36.6" y="196.7" width="854" height="24.65" shape-rendering="crispEdges"/><rect fill="#000000" x="890.6" y="196.7" width="24.4" height="24.65" shape-rendering="crispEdges"/><rect fill="#1e1e1e" x="915" y="196.7" width="24.4" height="24.65" shape-rendering="crispEdges"/><rect fill="#1e1e1e" x="939.4" y="196.7" width="12.2" height="24.65" shape-rendering="crispEdges"/><rect fill="#1e1e1e" x="951.6" y="196.7" width="24.4" height="24.65" shape-rendering="crispEdges"/><rect fill="#1e1e1e" x="0" y="221.1" width="12.2" height="24.65" shape-rendering="crispEdges"/><rect fill="#1e1e1e" x="12.2" y="221.1" width="24.4" height="24.65" shape-rendering="crispEdges"/><rect fill="#1e1e1e" x="36.6" y="221.1" width="61" height="24.65" shape-rendering="crispEdges"/><rect fill="#1e1e1e" x="97.6" y="221.1" width="793" height="24.65" shape-rendering="crispEdges"/><rect fill="#000000" x="890.6" y="221.1" width="24.4" height="24.65" shape-rendering="crispEdges"/><rect fill="#1e1e1e" x="915" y="221.1" width="24.4" height="24.65" shape-rendering="crispEdges"/><rect fill="#1e1e1e" x="939.4" y="221.1" width="12.2" height="24.65" shape-rendering="crispEdges"/><rect fill="#1e1e1e" x="951.6" y="221.1" width="24.4" height="24.65" shape-rendering="crispEdges"/><rect fill="#1e1e1e" x="0" y="245.5" width="12.2" height="24.65" shape-rendering="crispEdges"/><rect fill="#1e1e1e" x="12.2" y="245.5" width="24.4" height="24.65" shape-rendering="crispEdges"/><rect fill="#1e1e1e" x="36.6" y="245.5" width="805.2" height="24.65" shape-rendering="crispEdges"/><rect fill="#1e1e1e" x="841.8" y="245.5" width="48.8" height="24.65" shape-rendering="crispEdges"/><rect fill="#000000" x="890.6" y="245.5" width="24.4" height="24.65" shape-rendering="crispEdges"/><rect fill="#1e1e1e" x="915" y="245.5" width="24.4" height="24.65" shape-rendering="crispEdges"/><rect fill="#1e1e1e" x="939.4" y="245.5" width="12.2" height="24.65" shape-rendering="crispEdges"/><rect fill="#1e1e1e" x="951.6" y="245.5" width="24.4" height="24.65" shape-rendering="crispEdges"/><rect fill="#1e1e1e" x="0" y="269.9" width="12.2" height="24.65" shape-rendering="crispEdges"/><rect fill="#1e1e1e" x="12.2" y="269.9" width="24.4" height="24.65" shape-rendering="crispEdges"/><rect fill="#1e1e1e" x="36.6" y="269.9" width="61" height="24.65" shape-rendering="crispEdges"/><rect fill="#1e1e1e" x="97.6" y="269.9" width="793" height="24.65" shape-rendering="crispEdges"/><rect fill="#000000" x="890.6" y="269.9" width="24.4" height="24.65" shape-rendering="crispEdges"/><rect fill="#1e1e1e" x="915" y="269.9" width="24.4" height="24.65" shape-rendering="crispEdges"/><rect fill="#1e1e1e" x="939.4" y="269.9" width="12.2" height="24.65" shape-rendering="crispEdges"/><rect fill="#1e1e1e" x="951.6" y="269.9" width="24.4" height="24.65" shape-rendering="crispEdges"/><rect fill="#1e1e1e" x="0" y="294.3" width="12.2" height="24.65" shape-rendering="crispEdges"/><rect fill="#1e1e1e" x="12.2" y="294.3" width="24.4" height="24.65" shape-rendering="crispEdges"/><rect fill="#1e1e1e" x="36.6" y="294.3" width="854" height="24.65" shape-rendering="crispEdges"/><rect fill="#000000" x="890.6" y="294.3" width="24.4" height="24.65" shape-rendering="crispEdges"/><rect fill="#1e1e1e" x="915" y="294.3" width="24.4" height="24.65" shape-rendering="crispEdges"/><rect fill="#1e1e1e" x="939.4" y="294.3" width="12.2" height="24.65" shape-rendering="crispEdges"/><rect fill="#1e1e1e" x="951.6" y="294.3" width="24.4" height="24.65" shape-rendering="crispEdges"/><rect fill="#1e1e1e" x="0" y="318.7" width="12.2" height="24.65" shape-rendering="crispEdges"/><rect fill="#1e1e1e" x="12.2" y="318.7" width="24.4" height="24.65" shape-rendering="crispEdges"/><rect fill="#1e1e1e" x="36.6" y="318.7" width="48.8" height="24.65" shape-rendering="crispEdges"/><rect fill="#1e1e1e" x="85.4" y="318.7" width="805.2" height="24.65" shape-rendering="crispEdges"/><rect fill="#282828" x="890.6" y="318.7" width="24.4" height="24.65" shape-rendering="crispEdges"/><rect fill="#1e1e1e" x="915" y="318.7" width="24.4" height="24.65" shape-rendering="crispEdges"/><rect fill="#1e1e1e" x="939.4" y="318.7" width="12.2" height="24.65" shape-rendering="crispEdges"/><rect fill="#1e1e1e" x="951.6" y="318.7" width="24.4" height="24.65" shape-rendering="crispEdges"/><rect fill="#1e1e1e" x="0" y="343.1" width="12.2" height="24.65" shape-rendering="crispEdges"/><rect fill="#1e1e1e" x="12.2" y="343.1" width="24.4" height="24.65" shape-rendering="crispEdges"/><rect fill="#1e1e1e" x="36.6" y="343.1" width="829.6" height="24.65" shape-rendering="crispEdges"/><rect fill="#1e1e1e" x="866.2" y="343.1" width="24.4" height="24.65" shape-rendering="crispEdges"/><rect fill="#282828" x="890.6" y="343.1" width="24.4" height="24.65" shape-rendering="crispEdges"/><rect fill="#1e1e1e" x="915" y="343.1" width="24.4" height="24.65" shape-rendering="crispEdges"/><rect fill="#1e1e1e" x="939.4" y="343.1" width="12.2" height="24.65" shape-rendering="crispEdges"/><rect fill="#1e1e1e" x="951.6" y="343.1" width="24.4" height="24.65" shape-rendering="crispEdges"/><rect fill="#1e1e1e" x="0" y="367.5" width="12.2" height="24.65" shape-rendering="crispEdges"/><rect fill="#1e1e1e" x="12.2" y="367.5" width="24.4" height="24.65" shape-rendering="crispEdges"/><rect fill="#1e1e1e" x="36.6" y="367.5" width="73.2" height="24.65" shape-rendering="crispEdges"/><rect fill="#1e1e1e" x="109.8" y="367.5" width="780.8" height="24.65" shape-rendering="crispEdges"/><rect fill="#282828" x="890.6" y="367.5" width="24.4" height="24.65" shape-rendering="crispEdges"/><rect fill="#1e1e1e" x="915" y="367.5" width="24.4" height="24.65" shape-rendering="crispEdges"/><rect fill="#1e1e1e" x="939.4" y="367.5" width="12.2" height="24.65" shape-rendering="crispEdges"/><rect fill="#1e1e1e" x="951.6" y="367.5" width="24.4" height="24.65" shape-rendering="crispEdges"/><rect fill="#1e1e1e" x="0" y="391.9" width="12.2" height="24.65" shape-rendering="crispEdges"/><rect fill="#1e1e1e" x="12.2" y="391.9" width="24.4" height="24.65" shape-rendering="crispEdges"/><rect fill="#1e1e1e" x="36.6" y="391.9" width="854" height="24.65" shape-rendering="crispEdges"/><rect fill="#282828" x="890.6" y="391.9" width="24.4" height="24.65" shape-rendering="crispEdges"/><rect fill="#1e1e1e" x="915" y="391.9" width="24.4" height="24.65" shape-rendering="crispEdges"/><rect fill="#1e1e1e" x="939.4" y="391.9" width="12.2" height="24.65" shape-rendering="crispEdges"/><rect fill="#1e1e1e" x="951.6" y="391.9" width="24.4" height="24.65" shape-rendering="crispEdges"/><rect fill="#1e1e1e" x="0" y="416.3" width="12.2" height="24.65" shape-rendering="crispEdges"/><rect fill="#1e1e1e" x="12.2" y="416.3" width="24.4" height="24.65" shape-rendering="crispEdges"/><rect fill="#1e1e1e" x="36.6" y="416.3" width="854" height="24.65" shape-rendering="crispEdges"/><rect fill="#282828" x="890.6" y="416.3" width="24.4" height="24.65" shape-rendering="crispEdges"/><rect fill="#1e1e1e" x="915" y="416.3" width="24.4" height="24.65" shape-rendering="crispEdges"/><rect fill="#1e1e1e" x="939.4" y="416.3" width="12.2" height="24.65" shape-rendering="crispEdges"/><rect fill="#1e1e1e" x="951.6" y="416.3" width="24.4" height="24.65" shape-rendering="crispEdges"/><rect fill="#1e1e1e" x="0" y="440.7" width="12.2" height="24.65" shape-rendering="crispEdges"/><rect fill="#1e1e1e" x="12.2" y="440.7" width="927.2" height="24.65" shape-rendering="crispEdges"/><rect fill="#1e1e1e" x="939.4" y="440.7" width="12.2" height="24.65" shape-rendering="crispEdges"/><rect fill="#1e1e1e" x="951.6" y="440.7" width="24.4" height="24.65" shape-rendering="crispEdges"/><rect fill="#262626" x="0" y="465.1" width="24.4" height="24.65" shape-rendering="crispEdges"/><rect fill="#262626" x="24.4" y="465.1" width="390.4" height="24.65" shape-rendering="crispEdges"/><rect fill="#262626" x="414.8" y="465.1" width="561.2" height="24.65" shape-rendering="crispEdges"/><rect fill="#1e1e1e" x="0" y="489.5" width="12.2" height="24.65" shape-rendering="crispEdges"/><rect fill="#4b4b4b" x="12.2" y="489.5" width="12.2" height="24.65" shape-rendering="crispEdges"/><rect fill="#363636" x="24.4" y="489.5" width="927.2" height="24.65" shape-rendering="crispEdges"/><rect fill="#1e1e1e" x="951.6" y="489.5" width="12.2" height="24.65" shape-rendering="crispEdges"/><rect fill="#1e1e1e" x="963.8" y="489.5" width="12.2" height="24.65" shape-rendering="crispEdges"/><rect fill="#1e1e1e" x="0" y="513.9" width="12.2" height="24.65" shape-rendering="crispEdges"/><rect fill="#4b4b4b" x="12.2" y="513.9" width="12.2" height="24.65" shape-rendering="crispEdges"/><rect fill="#363636" x="24.4" y="513.9" width="24.4" height="24.65" shape-rendering="crispEdges"/><rect fill="#363636" x="48.8" y="513.9" width="524.6" height="24.65" shape-rendering="crispEdges"/><rect fill="#363636" x="573.4" y="513.9" width="353.8" height="24.65" shape-rendering="crispEdges"/><rect fill="#363636" x="927.2" y="513.9" width="24.4" height="24.65" shape-rendering="crispEdges"/><rect fill="#1e1e1e" x="951.6" y="513.9" width="12.2" height="24.65" shape-rendering="crispEdges"/><rect fill="#1e1e1e" x="963.8" y="513.9" width="12.2" height="24.65" shape-rendering="crispEdges"/><rect fill="#1e1e1e" x="0" y="538.3" width="12.2" height="24.65" shape-rendering="crispEdges"/><rect fill="#4b4b4b" x="12.2" y="538.3" width="12.2" height="24.65" shape-rendering="crispEdges"/><rect fill="#363636" x="24.4" y="538.3" width="927.2" height="24.65" shape-rendering="crispEdges"/><rect fill="#1e1e1e" x="951.6" y="538.3" width="12.2" height="24.65" shape-rendering="crispEdges"/><rect fill="#1e1e1e" x="963.8" y="538.3" width="12.2" height="24.65" shape-rendering="crispEdges"/><rect fill="#2d2d2d" x="0" y="562.7" width="48.8" height="24.65" shape-rendering="crispEdges"/><rect fill="#1e1e1e" x="48.8" y="562.7" width="61" height="24.65" shape-rendering="crispEdges"/><rect fill="#2d2d2d" x="109.8" y="562.7" width="61" height="24.65" shape-rendering="crispEdges"/><rect fill="#1e1e1e" x="170.8" y="562.7" width="61" height="24.65" shape-rendering="crispEdges"/><rect fill="#2d2d2d" x="231.8" y="562.7" width="48.8" height="24.65" shape-rendering="crispEdges"/><rect fill="#1e1e1e" x="280.6" y="562.7" width="85.4" height="24.65" shape-rendering="crispEdges"/><rect fill="#2d2d2d" x="366" y="562.7" width="48.8" height="24.65" shape-rendering="crispEdges"/><rect fill="#1e1e1e" x="414.8" y="562.7" width="61" height="24.65" shape-rendering="crispEdges"/><rect fill="#2d2d2d" x="475.8" y="562.7" width="48.8" height="24.65" shape-rendering="crispEdges"/><rect fill="#1e1e1e" x="524.6" y="562.7" width="61" height="24.65" shape-rendering="crispEdges"/><rect fill="#1e1e1e" x="585.6" y="562.7" width="390.4" height="24.65" shape-rendering="crispEdges"/>
    <g class="terminal-910200675-matrix">
    <text class="terminal-910200675-r1" x="976" y="20" textLength="12.2" clip-path="url(#terminal-910200675-line-0)">
</text><text class="terminal-910200675-r2" x="0" y="44.4" textLength="976" clip-path="url(#terminal-910200675-line-1)">&#160;&#160;ARGO&#160;&#160;/&#160;&#160;security&#160;console&#160;&#160;&#160;&#160;&#160;&#160;&#160;&#160;&#160;&#160;&#160;&#160;&#160;&#160;&#160;&#160;&#160;&#160;&#160;&#160;&#160;&#160;&#160;&#160;&#160;&#160;&#160;&#160;&#160;&#160;&#160;&#160;&#160;&#160;&#160;&#160;&#160;&#160;LOCAL&#160;INFERENCE</text><text class="terminal-910200675-r1" x="976" y="44.4" textLength="12.2" clip-path="url(#terminal-910200675-line-1)">
</text><text class="terminal-910200675-r3" x="0" y="68.8" textLength="976" clip-path="url(#terminal-910200675-line-2)">────────────────────────────────────────────────────────────────────────────────</text><text class="terminal-910200675-r1" x="976" y="68.8" textLength="12.2" clip-path="url(#terminal-910200675-line-2)">
</text><text class="terminal-910200675-r4" x="12.2" y="93.2" textLength="146.4" clip-path="url(#terminal-910200675-line-3)">Conversation</text><text class="terminal-910200675-r5" x="183" y="93.2" textLength="97.6" clip-path="url(#terminal-910200675-line-3)">Findings</text><text class="terminal-910200675-r5" x="305" y="93.2" textLength="48.8" clip-path="url(#terminal-910200675-line-3)">Runs</text><text class="terminal-910200675-r1" x="976" y="93.2" textLength="12.2" clip-path="url(#terminal-910200675-line-3)">
</text><text class="terminal-910200675-r6" x="0" y="117.6" textLength="12.2" clip-path="url(#terminal-910200675-line-4)">╸</text><text class="terminal-910200675-r7" x="12.2" y="117.6" textLength="146.4" clip-path="url(#terminal-910200675-line-4)">━━━━━━━━━━━━</text><text class="terminal-910200675-r6" x="158.6" y="117.6" textLength="12.2" clip-path="url(#terminal-910200675-line-4)">╺</text><text class="terminal-910200675-r6" x="170.8" y="117.6" textLength="780.8" clip-path="url(#terminal-910200675-line-4)">━━━━━━━━━━━━━━━━━━━━━━━━━━━━━━━━━━━━━━━━━━━━━━━━━━━━━━━━━━━━━━━━</text><text class="terminal-910200675-r1" x="976" y="117.6" textLength="12.2" clip-path="url(#terminal-910200675-line-4)">
</text><text class="terminal-910200675-r1" x="976" y="142" textLength="12.2" clip-path="url(#terminal-910200675-line-5)">
</text><text class="terminal-910200675-r8" x="36.6" y="166.4" textLength="854" clip-path="url(#terminal-910200675-line-6)">that&#160;the&#160;function&#160;can&#160;be&#160;called&#160;with&#160;the&#160;keyword&#160;argument&#160;&#x27;value&#x27;.&#160;All</text><text class="terminal-910200675-r1" x="976" y="166.4" textLength="12.2" clip-path="url(#terminal-910200675-line-6)">
</text><text class="terminal-910200675-r8" x="36.6" y="190.8" textLength="292.8" clip-path="url(#terminal-910200675-line-7)">tests&#160;pass&#160;successfully.</text><text class="terminal-910200675-r1" x="976" y="190.8" textLength="12.2" clip-path="url(#terminal-910200675-line-7)">
</text><text class="terminal-910200675-r1" x="976" y="215.2" textLength="12.2" clip-path="url(#terminal-910200675-line-8)">
</text><text class="terminal-910200675-r8" x="36.6" y="239.6" textLength="61" clip-path="url(#terminal-910200675-line-9)">Code:</text><text class="terminal-910200675-r1" x="976" y="239.6" textLength="12.2" clip-path="url(#terminal-910200675-line-9)">
</text><text class="terminal-910200675-r8" x="36.6" y="264" textLength="805.2" clip-path="url(#terminal-910200675-line-10)">/Users/turinglabs/.argo/runs/04c5925c5553427cbcbbbab07e1a5336/code</text><text class="terminal-910200675-r1" x="976" y="264" textLength="12.2" clip-path="url(#terminal-910200675-line-10)">
</text><text class="terminal-910200675-r8" x="36.6" y="288.4" textLength="61" clip-path="url(#terminal-910200675-line-11)">Diff:</text><text class="terminal-910200675-r1" x="976" y="288.4" textLength="12.2" clip-path="url(#terminal-910200675-line-11)">
</text><text class="terminal-910200675-r8" x="36.6" y="312.8" textLength="854" clip-path="url(#terminal-910200675-line-12)">/Users/turinglabs/.argo/runs/04c5925c5553427cbcbbbab07e1a5336/changes.</text><text class="terminal-910200675-r9" x="890.6" y="312.8" textLength="24.4" clip-path="url(#terminal-910200675-line-12)">▃▃</text><text class="terminal-910200675-r1" x="976" y="312.8" textLength="12.2" clip-path="url(#terminal-910200675-line-12)">
</text><text class="terminal-910200675-r8" x="36.6" y="337.2" textLength="48.8" clip-path="url(#terminal-910200675-line-13)">diff</text><text class="terminal-910200675-r1" x="976" y="337.2" textLength="12.2" clip-path="url(#terminal-910200675-line-13)">
</text><text class="terminal-910200675-r8" x="36.6" y="361.6" textLength="829.6" clip-path="url(#terminal-910200675-line-14)">2&#160;files&#160;restored.&#160;Type&#160;the&#160;next&#160;task&#160;to&#160;continue,&#160;or&#160;/reset&#160;to&#160;start</text><text class="terminal-910200675-r1" x="976" y="361.6" textLength="12.2" clip-path="url(#terminal-910200675-line-14)">
</text><text class="terminal-910200675-r8" x="36.6" y="386" textLength="73.2" clip-path="url(#terminal-910200675-line-15)">empty.</text><text class="terminal-910200675-r1" x="976" y="386" textLength="12.2" clip-path="url(#terminal-910200675-line-15)">
</text><text class="terminal-910200675-r1" x="976" y="410.4" textLength="12.2" clip-path="url(#terminal-910200675-line-16)">
</text><text class="terminal-910200675-r1" x="976" y="434.8" textLength="12.2" clip-path="url(#terminal-910200675-line-17)">
</text><text class="terminal-910200675-r1" x="976" y="459.2" textLength="12.2" clip-path="url(#terminal-910200675-line-18)">
</text><text class="terminal-910200675-r5" x="24.4" y="483.6" textLength="390.4" clip-path="url(#terminal-910200675-line-19)">Reviewing&#160;agent&#160;run&#160;04c5925c5553</text><text class="terminal-910200675-r1" x="976" y="483.6" textLength="12.2" clip-path="url(#terminal-910200675-line-19)">
</text><text class="terminal-910200675-r6" x="12.2" y="508" textLength="12.2" clip-path="url(#terminal-910200675-line-20)">▊</text><text class="terminal-910200675-r3" x="24.4" y="508" textLength="927.2" clip-path="url(#terminal-910200675-line-20)">▔▔▔▔▔▔▔▔▔▔▔▔▔▔▔▔▔▔▔▔▔▔▔▔▔▔▔▔▔▔▔▔▔▔▔▔▔▔▔▔▔▔▔▔▔▔▔▔▔▔▔▔▔▔▔▔▔▔▔▔▔▔▔▔▔▔▔▔▔▔▔▔▔▔▔▔</text><text class="terminal-910200675-r3" x="951.6" y="508" textLength="12.2" clip-path="url(#terminal-910200675-line-20)">▎</text><text class="terminal-910200675-r1" x="976" y="508" textLength="12.2" clip-path="url(#terminal-910200675-line-20)">
</text><text class="terminal-910200675-r6" x="12.2" y="532.4" textLength="12.2" clip-path="url(#terminal-910200675-line-21)">▊</text><text class="terminal-910200675-r10" x="48.8" y="532.4" textLength="524.6" clip-path="url(#terminal-910200675-line-21)">Ask&#160;Argo&#160;a&#160;question,&#160;or&#160;/help&#160;for&#160;commands…</text><text class="terminal-910200675-r3" x="951.6" y="532.4" textLength="12.2" clip-path="url(#terminal-910200675-line-21)">▎</text><text class="terminal-910200675-r1" x="976" y="532.4" textLength="12.2" clip-path="url(#terminal-910200675-line-21)">
</text><text class="terminal-910200675-r6" x="12.2" y="556.8" textLength="12.2" clip-path="url(#terminal-910200675-line-22)">▊</text><text class="terminal-910200675-r3" x="24.4" y="556.8" textLength="927.2" clip-path="url(#terminal-910200675-line-22)">▁▁▁▁▁▁▁▁▁▁▁▁▁▁▁▁▁▁▁▁▁▁▁▁▁▁▁▁▁▁▁▁▁▁▁▁▁▁▁▁▁▁▁▁▁▁▁▁▁▁▁▁▁▁▁▁▁▁▁▁▁▁▁▁▁▁▁▁▁▁▁▁▁▁▁▁</text><text class="terminal-910200675-r3" x="951.6" y="556.8" textLength="12.2" clip-path="url(#terminal-910200675-line-22)">▎</text><text class="terminal-910200675-r1" x="976" y="556.8" textLength="12.2" clip-path="url(#terminal-910200675-line-22)">
</text><text class="terminal-910200675-r2" x="0" y="581.2" textLength="48.8" clip-path="url(#terminal-910200675-line-23)">&#160;^q&#160;</text><text class="terminal-910200675-r11" x="48.8" y="581.2" textLength="61" clip-path="url(#terminal-910200675-line-23)">Quit&#160;</text><text class="terminal-910200675-r2" x="109.8" y="581.2" textLength="61" clip-path="url(#terminal-910200675-line-23)">&#160;esc&#160;</text><text class="terminal-910200675-r11" x="170.8" y="581.2" textLength="61" clip-path="url(#terminal-910200675-line-23)">Stop&#160;</text><text class="terminal-910200675-r2" x="231.8" y="581.2" textLength="48.8" clip-path="url(#terminal-910200675-line-23)">&#160;^l&#160;</text><text class="terminal-910200675-r11" x="280.6" y="581.2" textLength="85.4" clip-path="url(#terminal-910200675-line-23)">Prompt&#160;</text><text class="terminal-910200675-r2" x="366" y="581.2" textLength="48.8" clip-path="url(#terminal-910200675-line-23)">&#160;f1&#160;</text><text class="terminal-910200675-r11" x="414.8" y="581.2" textLength="61" clip-path="url(#terminal-910200675-line-23)">Help&#160;</text><text class="terminal-910200675-r2" x="475.8" y="581.2" textLength="48.8" clip-path="url(#terminal-910200675-line-23)">&#160;^r&#160;</text><text class="terminal-910200675-r11" x="524.6" y="581.2" textLength="61" clip-path="url(#terminal-910200675-line-23)">Runs&#160;</text>
    </g>
    </g>
</svg>
